PathFileType        4      (X/Y/Z)      C:\Users\cpontonn\Documents\TRAVAIL - COURS\FORMATION DOCTORALE\COURS AUTOMNE\DATA\ESCRIME PROPRE\C3Ds\trial10.trc         
DataRate	CameraRate	NumFrames	NumMarkers	Units	OrigDataRate	OrigDataStartFrame	OrigNumFrames
250.0	250.0	6	45	mm	250.0	552	883
Frame#	Time	LCAR			LFHD			LBHD			RFHD			RBHD			C7			T10			CLAV			STRN			LSHO			LUPA			LRAD			LHUM			LWRB			LWRA			RSHO			RBAC			RUPA			RRAD			RHUM			RWRB			RWRA			RCAR			LFWT			LBWT			RFWT			RBWT			LTHI			LKNE			LKNI			LANE			LANI			LHEE			LTAR			LTARI			LTOE			RTHI			RKNE			RKNI			RANE			RANI			RHEE			RTAR			RTARI			RTOE			
		X1	Y1	Z1	X2	Y2	Z2	X3	Y3	Z3	X4	Y4	Z4	X5	Y5	Z5	X6	Y6	Z6	X7	Y7	Z7	X8	Y8	Z8	X9	Y9	Z9	X10	Y10	Z10	X11	Y11	Z11	X12	Y12	Z12	X13	Y13	Z13	X14	Y14	Z14	X15	Y15	Z15	X16	Y16	Z16	X17	Y17	Z17	X18	Y18	Z18	X19	Y19	Z19	X20	Y20	Z20	X21	Y21	Z21	X22	Y22	Z22	X23	Y23	Z23	X24	Y24	Z24	X25	Y25	Z25	X26	Y26	Z26	X27	Y27	Z27	X28	Y28	Z28	X29	Y29	Z29	X30	Y30	Z30	X31	Y31	Z31	X32	Y32	Z32	X33	Y33	Z33	X34	Y34	Z34	X35	Y35	Z35	X36	Y36	Z36	X37	Y37	Z37	X38	Y38	Z38	X39	Y39	Z39	X40	Y40	Z40	X41	Y41	Z41	X42	Y42	Z42	X43	Y43	Z43	X44	Y44	Z44	X45	Y45	Z45	
552	2.204	2706.23804	903.29999	207.1052099999999	2130.95117	1267.27661	173.31971999999993	2031.00977	1250.81824	155.84861999999998	2125.6853	1292.71143	387.99614999999994	2006.36218	1265.10718	394.06960999999995	1937.99243	1154.4469	216.73842999999994	1781.36084	944.88348	144.62668999999994	1995.85095	1026.63074	334.16558999999995	1943.69995	875.41595	351.21630999999996	2077.72949	1060.65552	152.12044999999995	2163.33594	1018.51685	204.5836299999999	2315.59839	914.74921	179.49456999999992	2291.28491	864.3382	234.32541999999992	2561.7583	826.185	244.3753099999999	2574.11572	928.01465	247.35697999999988	1825.16394	1174.1012	354.96728999999993	1785.02576	1114.84058	210.55366999999995	1634.01685	1077.66968	373.03786999999994	1526.4259	1092.86975	309.6837499999999	1548.48071	1030.56091	247.30243999999996	1390.47461	923.44543	482.2998	1482.35376	907.32361	507.1755999999999	1428.8335	911.77222	572.6591799999999	1907.86182	676.55859	213.77857999999992	1721.33521	760.46771	98.07358999999994	1722.71167	685.31226	351.63466999999997	1669.17346	769.08417	152.55544999999995	1984.50305	646.37292	85.35993999999991	2212.00488	502.44971	126.68146999999989	2198.91528	476.52823	269.77315999999996	2210.67993	104.31755999999999	138.73353999999986	2194.61108	112.33629999999998	233.75922999999986	2131.31152	64.12271999999999	167.46973999999986	2350.50244	37.69677999999999	149.62829999999985	2324.12378	48.261569999999985	254.72948999999986	2403.71045	47.53956999999998	242.30245999999985	1469.7478	366.66922	376.90017999999986	1357.745	381.65863	327.99193999999994	1425.3374	275.41559	285.52785999999986	1036.84314	151.34816	150.04564999999994	1082.52905	69.42890999999999	182.91167999999993	1060.92346	89.61879	93.74451999999992	919.35547	99.06499999999998	260.59801999999996	995.94873	23.242359999999984	288.28560999999996	946.70538	46.51842999999998	344.95809999999994	
553	2.208	2710.6377	904.2616	207.73288999999988	2136.17139	1266.10999	172.73519999999994	2036.16602	1249.78162	155.35929999999996	2131.18799	1291.67017	387.39071999999993	2011.80054	1264.22424	393.55028999999996	1943.26917	1153.37988	216.40180999999995	1786.58569	944.68896	143.85596999999996	2000.94958	1025.76233	333.91137999999995	1948.45984	874.4895	350.88912999999997	2083.46167	1059.28638	151.66874999999993	2168.78271	1016.55927	204.3413999999999	2320.96606	913.15869	179.05196999999993	2297.01831	862.21838	233.2691299999999	2567.20435	824.37793	243.0606199999999	2578.29712	926.16608	247.8964099999999	1830.3042	1173.20715	354.98043999999993	1789.98608	1113.94495	210.58982999999995	1638.72009	1076.13379	373.85555999999997	1530.44214	1090.89709	312.22765999999996	1551.76892	1028.83521	249.31301999999997	1396.69189	921.19501	484.4129899999999	1488.87915	905.29938	508.72625999999997	1435.63953	909.43378	574.4252899999999	1913.3761	681.23407	215.2974499999999	1725.63818	760.88043	98.04535999999995	1726.44202	685.03436	351.37819999999994	1672.53845	768.14941	152.21885999999995	1988.6676	645.62885	85.13949999999991	2215.57104	503.34097	126.27548999999989	2202.13818	475.64069	269.09105999999997	2212.93896	104.29573999999998	138.50939999999986	2196.67407	112.22387999999998	233.62264999999985	2133.18164	64.18766999999998	167.08294999999987	2352.37109	37.65897999999999	149.59694999999985	2325.75635	48.22219999999999	254.59054999999987	2405.25952	47.480029999999985	242.55756999999986	1472.61035	366.85471	376.95177999999987	1361.14404	382.20392	327.67312999999996	1427.82458	275.48901	286.66262999999987	1039.52234	152.54257	150.30411999999995	1085.51672	70.40388999999999	182.28588999999994	1063.41724	91.18192	93.35528999999993	922.78418	99.19407999999999	261.1955899999999	999.79663	23.486019999999982	287.7312299999999	950.94214	46.16647999999998	344.85396999999995	
554	2.212	2715.17798	905.1637	208.76992999999987	2141.24585	1264.98499	172.08536999999995	2041.20898	1248.7533	154.88007999999996	2136.5686	1290.62244	386.7622099999999	2017.13647	1263.32361	393.0208099999999	1948.45398	1152.32593	216.00313999999995	1791.65466	944.45392	143.10109999999995	2005.93005	1024.8479	333.64336999999995	1953.1438	873.5816	350.52700999999996	2089.05884	1057.87781	151.2558699999999	2174.05273	1014.70367	203.9264499999999	2326.18701	911.41016	178.5337199999999	2302.48022	860.03931	232.2447799999999	2572.56812	823.11829	241.53640999999988	2582.25	924.73712	248.51897999999989	1835.4104	1172.35803	354.94930999999997	1794.9624	1113.15417	210.58292999999995	1643.69763	1074.73633	374.90291999999994	1534.53809	1088.98071	314.57195999999993	1555.19177	1027.05713	251.27103999999997	1403.06885	919.0224	486.42812999999995	1495.34631	903.43701	510.1816999999999	1442.32629	907.28778	576.1707199999998	1918.6571	685.60211	216.60235999999992	1729.83545	761.27435	97.98804999999994	1730.15869	684.77673	351.20574999999997	1675.94629	767.24768	151.90095999999994	1992.62549	645.03729	84.83391999999992	2218.86304	504.15143	125.83878999999989	2205.15454	474.64224	268.3615699999999	2214.53955	104.33021999999998	138.29351999999986	2198.02441	112.42256999999998	233.20293999999987	2134.42456	64.40122999999998	166.50573999999986	2353.52954	37.67170999999999	149.56229999999985	2326.68921	48.20117999999999	254.62545999999986	2406.12671	47.547249999999984	242.75680999999986	1475.47217	367.16959	376.9815099999999	1364.48071	382.60751	327.3254099999999	1430.14673	275.72156	287.8099699999999	1042.15125	153.7635	150.59006999999994	1088.45227	71.32017999999998	181.65636999999995	1065.74133	92.83487	92.99243999999993	926.28955	99.46032999999998	261.85546999999997	1003.58997	23.676889999999982	287.21416999999997	955.07611	45.97308999999998	345.0475799999999	
555	2.216	2719.68384	905.67285	209.7186099999999	2146.22559	1263.89502	171.47460999999996	2046.13501	1247.75415	154.35024999999996	2141.79858	1289.5481	386.05922999999996	2022.39917	1262.37476	392.55825999999996	1953.61768	1151.30273	215.60644999999994	1796.64258	944.20929	142.41137999999995	2010.87109	1023.9248	333.32714999999996	1957.79272	872.68616	350.1209999999999	2094.52979	1056.41321	150.8229699999999	2179.12183	1012.84552	203.45426999999992	2331.24951	909.52814	177.91512999999992	2307.57813	857.88818	231.3223299999999	2577.8811	821.95331	240.8595999999999	2586.14941	923.68921	249.1311799999999	1840.51587	1171.52209	354.97786999999994	1799.86572	1112.4126	210.62401999999994	1648.38306	1073.43286	375.61818999999997	1538.72437	1087.18384	316.65996999999993	1558.83569	1025.2832	253.09752999999998	1409.22742	917.28784	488.02163999999993	1501.72705	901.60944	511.84057999999993	1449.0448	905.25018	577.9572099999999	1923.51001	688.9129	217.5949599999999	1733.8739	761.53076	97.98877999999995	1733.71814	684.55035	351.0274999999999	1679.51013	766.44696	151.64365999999995	1996.31653	644.58685	84.47111999999991	2222.05005	504.80151	125.3168199999999	2207.94751	473.59464	267.58181999999994	2215.46655	104.38292999999999	138.01793999999987	2198.74707	112.62872999999999	232.81629999999987	2135.15845	64.53509999999999	166.10923999999986	2354.25854	37.64730999999999	149.54482999999985	2327.27295	48.20785999999998	254.55428999999987	2406.61279	47.574719999999985	242.84617999999986	1478.21619	367.64252	377.03521999999987	1367.8623	383.0184	327.0067399999999	1432.453	275.8587	288.60827999999987	1044.6731	155.03726	150.80495999999994	1091.31775	72.21394999999998	180.95691999999994	1067.9397	94.3858	92.62668999999993	929.76202	99.69161999999999	262.58870999999994	1007.26392	23.75734999999998	286.7271099999999	959.64471	45.531599999999976	345.33639999999997	
556	2.22	2724.09717	905.82959	210.6354999999999	2151.10718	1262.92139	170.83179999999993	2050.99194	1246.77136	153.83622999999997	2146.96973	1288.55066	385.47689999999994	2027.53418	1261.40576	392.1279599999999	1958.74158	1150.33838	215.17501999999993	1801.39465	943.92468	141.83266999999995	2015.73621	1022.94775	333.05474999999996	1962.37866	871.80292	349.70339999999993	2099.80615	1054.95654	150.34029999999993	2183.99902	1011.0885	202.90270999999993	2336.11572	907.66888	177.24383999999992	2312.38916	855.86047	230.4423199999999	2582.90479	821.1524	239.9207799999999	2590.14575	922.70642	249.9432699999999	1845.66223	1170.68286	354.97640999999993	1804.72168	1111.77942	210.64547999999994	1653.07703	1072.19312	376.19500999999997	1543.01892	1085.49268	318.50048999999996	1562.5885	1023.57086	254.86495999999997	1415.45654	915.56775	490.07177999999993	1508.09729	900.08575	512.8995999999999	1455.54028	903.54437	579.3869599999999	1927.59412	690.15778	217.98298999999992	1737.8114	761.81702	97.87138999999995	1737.22278	684.33527	350.95287999999994	1683.10156	766.31061	151.46265999999994	1999.64844	644.27136	84.06687999999991	2225.16821	505.21619	124.7972999999999	2210.58643	472.56851	266.70379999999994	2216.04053	104.41685999999999	137.80944999999986	2199.22949	112.74576999999998	232.69793999999985	2135.50415	64.69599999999998	165.90600999999987	2354.54443	37.592209999999994	149.46663999999987	2327.51001	48.22558999999998	254.54639999999986	2406.77783	47.580229999999986	242.92602999999986	1480.97534	368.20432	377.01812999999987	1371.0863	383.34879	326.68944999999997	1434.83557	275.96033	289.1096799999999	1047.19153	156.01169	151.22355999999994	1094.23254	72.98913999999999	180.40157999999994	1070.11816	95.81927	92.27160999999992	933.22504	99.89500999999998	263.0915499999999	1010.82611	23.808709999999984	286.25747999999993	963.60199	45.285739999999976	345.40380999999996	
557	2.224	2728.24316	905.7868	211.7581499999999	2155.87061	1261.95142	170.21750999999995	2055.74219	1245.79895	153.34862999999999	2151.98584	1287.54614	384.86776999999995	2032.60022	1260.38806	391.7161899999999	1963.8501	1149.40149	214.85567999999995	1805.90173	943.68427	141.16382999999993	2020.46704	1021.94446	332.6924399999999	1966.92456	870.91388	349.27431999999993	2104.87402	1053.40637	149.83446999999992	2188.7395	1009.39368	202.2371699999999	2340.823	905.90515	176.45489999999992	2316.96484	853.9917	229.6745799999999	2587.61255	820.1192	239.5451699999999	2594.20044	921.62012	250.7431199999999	1850.79578	1169.89465	355.04470999999995	1809.49219	1111.18689	210.70562999999996	1658.02942	1071.05774	376.97194999999994	1547.43921	1084.01331	320.07113999999996	1566.57568	1021.99286	256.4365199999999	1421.90369	913.74359	491.67116999999996	1514.37598	898.72168	514.3410599999999	1462.06262	901.91809	580.9224199999999	1930.97168	688.94421	217.54450999999992	1741.6156	762.04376	97.72529999999993	1740.70081	684.10931	350.8789699999999	1686.94849	766.78723	151.38068999999993	2002.67566	644.08856	83.57883999999991	2228.29736	505.39523	124.25927999999989	2213.15723	471.7561	265.8582799999999	2216.32544	104.47447999999999	137.69607999999985	2199.47656	113.05026999999998	232.51343999999986	2135.57739	64.81262999999998	165.83928999999986	2354.58105	37.601229999999994	149.46190999999985	2327.52271	48.217939999999984	254.59688999999986	2406.7959	47.54728999999998	242.95043999999984	1483.71338	368.81927	376.9786699999999	1374.30005	383.64948	326.40731999999997	1437.30945	276.04788	289.4154399999999	1049.72375	156.94661	151.49953999999994	1096.97314	73.82124999999999	179.70330999999993	1072.24792	97.17675	91.97749999999994	936.63245	100.07756999999998	263.8545199999999	1014.45557	23.94410999999998	285.8105499999999	967.82666	45.005989999999976	345.64242999999993	
